<svg width="100" height="100" viewBox="0 0 100 100" fill="none" xmlns="http://www.w3.org/2000/svg">
    <defs>
      <style type="text/css"><![CDATA[
        @keyframes strength{
            from{
                fill: #9CCC50;
            }
            to{
                fill: #215086;
            }
        }

        .waves{
            animation: motion 2400ms linear infinite;
        }

        @keyframes motion{
            from{
            transform: translateX(0%);
            }
            to{
            transform: translateX(25%);     
            }
        }
        .signal{
            animation: strength 2400ms infinite normal;
        }

        #Vector_2{
            animation-delay: 800ms;
        }

        #Vector_3{
            animation-delay: 1600ms;
        }

        #Vector_4{
            animation-delay: 2400ms;
        }
      ]]></style>
    </defs>
    <g id="Frame 4">
    <mask id="mask0_27_86" style="mask-type:alpha" maskUnits="userSpaceOnUse" x="0" y="0" width="100" height="100">
    <circle id="Ellipse 1" cx="50" cy="50" r="50" fill="#D9D9D9"/>
    </mask>
    <g mask="url(#mask0_27_86)">
    <path id="Vector" d="M79.4593 74C81.0626 73.9112 82.4656 73.9112 83.8685 74H85.7724L99 59H87.7766C86.4739 60.4201 84.7704 61.2189 82.9666 61.2189H3V67.5207C3.40084 67.5207 3.90188 67.432 4.30271 67.432C10.1148 67.432 15.5261 69.8284 19.6347 73.9112L79.4593 74Z" fill="#9CCC50"/>
    <path class="signal" id="Vector_2" d="M68.8468 54.5799H58.3612C58.3612 48.2308 53.1666 43.0361 46.8175 43.0361V32.5506C59.0346 32.5506 68.8468 42.459 68.8468 54.5799Z" fill="#215086"/>
    <path class="signal" id="Vector_3" d="M82.2182 54.5798H71.8289C71.8289 40.8235 60.67 29.6646 46.9137 29.6646V19.2753C66.3456 19.2753 82.2182 35.0517 82.2182 54.5798Z" fill="#215086"/>
    <path class="signal" id="Vector_4" d="M95.3973 54.5798H84.9118C84.9118 33.6087 67.8848 16.5817 46.8175 16.5817V6C73.6566 6.0962 95.3973 27.8369 95.3973 54.5798Z" fill="#215086"/>
    <path id="Vector_5" d="M47.5871 56.6C49.606 56.6 51.2426 54.9633 51.2426 52.9445C51.2426 50.9256 49.606 49.2889 47.5871 49.2889C45.5682 49.2889 43.9316 50.9256 43.9316 52.9445C43.9316 54.9633 45.5682 56.6 47.5871 56.6Z" fill="#9CCC50"/>
    <path class="waves" id="Vector_6" d="M-250 78C-243.7 78 -243.7 82 -237.4 82C-231.1 82 -231.1 78 -224.8 78C-218.5 78 -218.5 82 -212.2 82C-205.9 82 -205.9 78 -199.6 78C-193.3 78 -193.3 82 -187 82C-180.7 82 -180.7 78 -174.4 78C-168.1 78 -168.1 82 -161.8 82C-155.5 82 -155.5 78 -149.2 78C-142.9 78 -142.9 82 -136.6 82C-130.3 82 -130.3 78 -124 78C-117.7 78 -117.7 82 -111.4 82C-105.1 82 -105.1 78 -98.8 78C-92.5 78 -92.5 82 -86.2 82C-79.9 82 -79.9 78 -73.6 78C-67.3 78 -67.3 82 -61 82C-54.7 82 -54.7 78 -48.4 78C-42.1 78 -42.1 82 -35.8 82C-29.5 82 -29.5 78 -23.2 78C-16.9 78 -16.9 82 -10.6 82C-4.29999 82 -4.30002 78 1.99998 78C8.29998 78 8.30001 82 14.6 82C20.9 82 20.9 78 27.2 78C33.5 78 33.5 82 39.8 82C46.1 82 46.1 78 52.4 78C58.7 78 58.7 82 65 82C71.3 82 71.3 78 77.6 78C83.9 78 83.9 82 90.2 82C96.5 82 96.5 78 102.8 78" stroke="#1B96D1" stroke-width="6" stroke-miterlimit="10" stroke-linecap="round"/>
    <path class="waves" id="Vector_7" d="M-250 89C-243.7 89 -243.7 93 -237.4 93C-231.1 93 -231.1 89 -224.8 89C-218.5 89 -218.5 93 -212.2 93C-205.9 93 -205.9 89 -199.6 89C-193.3 89 -193.3 93 -187 93C-180.7 93 -180.7 89 -174.4 89C-168.1 89 -168.1 93 -161.8 93C-155.5 93 -155.5 89 -149.2 89C-142.9 89 -142.9 93 -136.6 93C-130.3 93 -130.3 89 -124 89C-117.7 89 -117.7 93 -111.4 93C-105.1 93 -105.1 89 -98.8 89C-92.5 89 -92.5 93 -86.2 93C-79.9 93 -79.9 89 -73.6 89C-67.3 89 -67.3 93 -61 93C-54.7 93 -54.7 89 -48.4 89C-42.1 89 -42.1 93 -35.8 93C-29.5 93 -29.5 89 -23.2 89C-16.9 89 -16.9 93 -10.6 93C-4.29999 93 -4.30002 89 1.99998 89C8.29998 89 8.30001 93 14.6 93C20.9 93 20.9 89 27.2 89C33.5 89 33.5 93 39.8 93C46.1 93 46.1 89 52.4 89C58.7 89 58.7 93 65 93C71.3 93 71.3 89 77.6 89C83.9 89 83.9 93 90.2 93C96.5 93 96.5 89 102.8 89" stroke="#1B96D1" stroke-width="6" stroke-miterlimit="10" stroke-linecap="round"/>
    <path class="waves" id="Vector_8" d="M-250 100C-243.7 100 -243.7 104 -237.4 104C-231.1 104 -231.1 100 -224.8 100C-218.5 100 -218.5 104 -212.2 104C-205.9 104 -205.9 100 -199.6 100C-193.3 100 -193.3 104 -187 104C-180.7 104 -180.7 100 -174.4 100C-168.1 100 -168.1 104 -161.8 104C-155.5 104 -155.5 100 -149.2 100C-142.9 100 -142.9 104 -136.6 104C-130.3 104 -130.3 100 -124 100C-117.7 100 -117.7 104 -111.4 104C-105.1 104 -105.1 100 -98.8 100C-92.5 100 -92.5 104 -86.2 104C-79.9 104 -79.9 100 -73.6 100C-67.3 100 -67.3 104 -61 104C-54.7 104 -54.7 100 -48.4 100C-42.1 100 -42.1 104 -35.8 104C-29.5 104 -29.5 100 -23.2 100C-16.9 100 -16.9 104 -10.6 104C-4.29999 104 -4.30002 100 1.99998 100C8.29998 100 8.30001 104 14.6 104C20.9 104 20.9 100 27.2 100C33.5 100 33.5 104 39.8 104C46.1 104 46.1 100 52.4 100C58.7 100 58.7 104 65 104C71.3 104 71.3 100 77.6 100C83.9 100 83.9 104 90.2 104C96.5 104 96.5 100 102.8 100" stroke="#1B96D1" stroke-width="6" stroke-miterlimit="10" stroke-linecap="round"/>
    </g>
    </g>
</svg>